<svg width="32" height="32" viewBox="0 0 32 32" fill="none" xmlns="http://www.w3.org/2000/svg">
  <rect width="32" height="32" rx="6" fill="#1c1c1a"/>
  <path d="M6 16 L26 16" stroke="#f5f3ee" stroke-width="0.5" stroke-linecap="round" opacity="0.15"/>
  <path d="M16 16 L16 7" stroke="#f5f3ee" stroke-width="1.2" stroke-linecap="round"/>
  <path d="M11 16 L11 10" stroke="#f5f3ee" stroke-width="0.9" stroke-linecap="round"/>
  <path d="M21 16 L21 10" stroke="#f5f3ee" stroke-width="0.9" stroke-linecap="round"/>
  <path d="M11 13 Q7 10 6 5 Q11 6 11 12" fill="#f5f3ee" opacity="0.45"/>
  <path d="M16 11 Q11 8 10 3 Q16 4 16 10" fill="#f5f3ee" opacity="0.8"/>
  <path d="M21 13 Q25 10 26 5 Q21 6 21 12" fill="#f5f3ee" opacity="0.45"/>
  <path d="M16 9 Q21 6 22 1 Q17 2 16 8" fill="#0F6E56"/>
  <path d="M11 16 Q7 20 6 27" stroke="#0F6E56" stroke-width="0.8" stroke-linecap="round" opacity="0.75"/>
  <path d="M16 16 L16 23" stroke="#0F6E56" stroke-width="1" stroke-linecap="round"/>
  <path d="M16 20 Q13 23 12 29" stroke="#0F6E56" stroke-width="0.8" stroke-linecap="round" opacity="0.75"/>
  <path d="M16 21 Q19 24 20 29" stroke="#0F6E56" stroke-width="0.8" stroke-linecap="round" opacity="0.75"/>
  <path d="M21 16 Q25 20 26 27" stroke="#0F6E56" stroke-width="0.8" stroke-linecap="round" opacity="0.75"/>
</svg>
